<mxfile host="app.diagrams.net" modified="2020-12-11T00:23:34.129Z" agent="5.0 (Windows NT 10.0; Win64; x64) AppleWebKit/537.36 (KHTML, like Gecko) Chrome/87.0.4280.88 Safari/537.36" etag="TKtSxj7sIMyi3vJnEbAC" version="14.0.0" type="github" pages="9">
  <diagram name="General" id="f1b7ffb7-ca1e-a977-7cf5-a751b3c06c05">
    <mxGraphModel dx="868" dy="450" grid="1" gridSize="10" guides="1" tooltips="1" connect="1" arrows="1" fold="1" page="1" pageScale="1" pageWidth="826" pageHeight="1169" background="#ffffff" math="0" shadow="0">
      <root>
        <mxCell id="0" />
        <mxCell id="1" parent="0" />
        <mxCell id="14" value="" style="verticalLabelPosition=bottom;verticalAlign=top;strokeWidth=1;shape=mxgraph.mockup.graphics.iconGrid;strokeColor=#CCCCCC;gridSize=1,1;" parent="1" vertex="1">
          <mxGeometry x="600" y="140" width="200" height="410" as="geometry" />
        </mxCell>
        <mxCell id="13" value="" style="verticalLabelPosition=bottom;verticalAlign=top;strokeWidth=1;shape=mxgraph.mockup.graphics.iconGrid;strokeColor=#CCCCCC;gridSize=1,1;" parent="1" vertex="1">
          <mxGeometry x="20" y="120" width="570" height="480" as="geometry" />
        </mxCell>
        <mxCell id="2" value="Blog Name" style="text;spacingTop=-5;fontSize=18;fontStyle=0" parent="1" vertex="1">
          <mxGeometry x="70" y="30" width="230" height="20" as="geometry" />
        </mxCell>
        <mxCell id="3" value="" style="line;strokeWidth=1" parent="1" vertex="1">
          <mxGeometry x="20" y="60" width="780" height="10" as="geometry" />
        </mxCell>
        <mxCell id="4" value="" style="line;strokeWidth=1" parent="1" vertex="1">
          <mxGeometry x="20" y="90" width="780" height="10" as="geometry" />
        </mxCell>
        <mxCell id="5" value="Home" style="text;spacingTop=-5;" parent="1" vertex="1">
          <mxGeometry x="20" y="70.00000000000009" width="30" height="20" as="geometry" />
        </mxCell>
        <mxCell id="6" value="About" style="text;spacingTop=-5;" parent="1" vertex="1">
          <mxGeometry x="59.999999999999936" y="70.00000000000016" width="30" height="20" as="geometry" />
        </mxCell>
        <mxCell id="7" value="Associated blogs" style="text;spacingTop=-5;" parent="1" vertex="1">
          <mxGeometry x="459.9999999999999" y="70" width="30" height="20" as="geometry" />
        </mxCell>
        <mxCell id="8" value="Article 1" style="text;spacingTop=-5;" parent="1" vertex="1">
          <mxGeometry x="20" y="120" width="30" height="20" as="geometry" />
        </mxCell>
        <mxCell id="9" value="Lorem ipsum dolor sit amet, consectetur adipisicing elit, sed do eiusmod tempor incididunt ut labore et dolore magna aliqua. Ut enim ad minim veniam, quis nostrud exercitation ullamco laboris nisi ut aliquip ex ea commodo consequat. Duis aute irure dolor in reprehenderit in voluptate velit esse cillum dolore eu fugiat nulla pariatur. Excepteur sint occaecat cupidatat non proident, sunt in culpa qui officia deserunt mollit anim id est laborum.&#xa;Sed ut perspiciatis unde omnis iste natus error sit voluptatem accusantium doloremque laudantium, totam rem aperiam, eaque ipsa quae ab illo inventore veritatis et quasi architecto beatae vitae dicta sunt explicabo. Nemo enim ipsam voluptatem quia voluptas sit aspernatur aut odit aut fugit, sed quia consequuntur magni dolores eos qui ratione voluptatem sequi nesciunt. Neque porro quisquam est, qui dolorem ipsum quia dolor sit amet, consectetur, adipisci velit, sed quia non numquam eius modi tempora incidunt ut labore et dolore magnam aliquam quaerat voluptatem. Ut enim ad minima veniam, quis nostrum exercitationem ullam corporis suscipit laboriosam, nisi ut aliquid ex ea commodi consequatur? Quis autem vel eum iure reprehenderit qui in ea voluptate velit esse quam nihil molestiae consequatur, vel illum qui dolorem eum fugiat quo voluptas nulla pariatur?" style="text;spacingTop=-5;whiteSpace=wrap;align=left" parent="1" vertex="1">
          <mxGeometry x="20" y="150" width="530" height="250" as="geometry" />
        </mxCell>
        <mxCell id="10" value="Latest Posts" style="text;spacingTop=-5;" parent="1" vertex="1">
          <mxGeometry x="610" y="120" width="30" height="20" as="geometry" />
        </mxCell>
        <mxCell id="11" value="RSS" style="text;spacingTop=-5;" parent="1" vertex="1">
          <mxGeometry x="740" y="70.00000000000013" width="30" height="20" as="geometry" />
        </mxCell>
        <mxCell id="12" value="Lorem ipsum dolor sit amet, consectetur adipisicing elit, sed do eiusmod tempor incididunt ut labore et dolore magna aliqua. Ut enim ad minim veniam, quis nostrud exercitation ullamco laboris nisi ut aliquip ex ea commodo consequat. Duis aute irure dolor in reprehenderit in voluptate velit esse ..." style="text;spacingTop=-5;whiteSpace=wrap;align=left" parent="1" vertex="1">
          <mxGeometry x="610" y="150" width="190" height="140" as="geometry" />
        </mxCell>
        <mxCell id="15" value="More" style="text;spacingTop=-5;fontStyle=4" parent="1" vertex="1">
          <mxGeometry x="760" y="290" width="30" height="20" as="geometry" />
        </mxCell>
        <mxCell id="16" value="Yesterday" style="text;spacingTop=-5;fontStyle=0;align=right" parent="1" vertex="1">
          <mxGeometry x="760" y="310" width="30" height="20" as="geometry" />
        </mxCell>
        <mxCell id="17" value="Lorem ipsum dolor sit amet, consectetur adipisicing elit, sed do eiusmod tempor incididunt ut labore et dolore magna aliqua. Ut enim ad minim veniam, quis nostrud exercitation ullamco laboris nisi ut aliquip ex ea commodo consequat. Duis aute irure dolor in reprehenderit in voluptate velit esse ..." style="text;spacingTop=-5;whiteSpace=wrap;align=left" parent="1" vertex="1">
          <mxGeometry x="605" y="330" width="190" height="140" as="geometry" />
        </mxCell>
        <mxCell id="18" value="More" style="text;spacingTop=-5;fontStyle=4" parent="1" vertex="1">
          <mxGeometry x="755" y="470" width="30" height="20" as="geometry" />
        </mxCell>
        <mxCell id="19" value="1 week ago" style="text;spacingTop=-5;fontStyle=0;align=right" parent="1" vertex="1">
          <mxGeometry x="755" y="490" width="30" height="20" as="geometry" />
        </mxCell>
        <mxCell id="20" value="" style="verticalLabelPosition=bottom;verticalAlign=top;strokeWidth=1;shape=mxgraph.mockup.graphics.iconGrid;strokeColor=#CCCCCC;gridSize=1,1;" parent="1" vertex="1">
          <mxGeometry x="20" y="15" width="40" height="40" as="geometry" />
        </mxCell>
        <mxCell id="21" value="Blog &#xa;Logo" style="text;spacingTop=-5;align=center" parent="1" vertex="1">
          <mxGeometry x="20" y="20" width="40" height="40" as="geometry" />
        </mxCell>
        <mxCell id="22" value="Blog&#39;s Main Topic 1" style="text;spacingTop=-5;" parent="1" vertex="1">
          <mxGeometry x="99.99999999999997" y="70.00000000000026" width="30" height="20" as="geometry" />
        </mxCell>
        <mxCell id="23" value="Blog&#39;s Main Topic 2" style="text;spacingTop=-5;" parent="1" vertex="1">
          <mxGeometry x="219.99999999999997" y="70.00000000000003" width="30" height="20" as="geometry" />
        </mxCell>
        <mxCell id="24" value="Blog&#39;s Main Topic 3" style="text;spacingTop=-5;" parent="1" vertex="1">
          <mxGeometry x="340" y="70.00000000000013" width="30" height="20" as="geometry" />
        </mxCell>
        <mxCell id="25" value="" style="verticalLabelPosition=bottom;verticalAlign=top;strokeWidth=1;shape=mxgraph.mockup.graphics.iconGrid;strokeColor=#CCCCCC;gridSize=1,1;" parent="1" vertex="1">
          <mxGeometry x="100" y="370" width="360" height="200" as="geometry" />
        </mxCell>
        <mxCell id="26" value="Article&#xa;Picture" style="text;spacingTop=-5;align=center;verticalAlign=middle;fontSize=36;fontColor=#CCCCCC" parent="1" vertex="1">
          <mxGeometry x="100" y="370" width="360" height="200" as="geometry" />
        </mxCell>
        <mxCell id="27" value="" style="verticalLabelPosition=bottom;verticalAlign=top;strokeWidth=1;shape=mxgraph.mockup.graphics.iconGrid;strokeColor=#CCCCCC;gridSize=1,1;" parent="1" vertex="1">
          <mxGeometry x="20" y="620" width="570" height="480" as="geometry" />
        </mxCell>
        <mxCell id="28" value="Article 2" style="text;spacingTop=-5;" parent="1" vertex="1">
          <mxGeometry x="20" y="620" width="30" height="20" as="geometry" />
        </mxCell>
        <mxCell id="29" value="Lorem ipsum dolor sit amet, consectetur adipisicing elit, sed do eiusmod tempor incididunt ut labore et dolore magna aliqua. Ut enim ad minim veniam, quis nostrud exercitation ullamco laboris nisi ut aliquip ex ea commodo consequat. Duis aute irure dolor in reprehenderit in voluptate velit esse cillum dolore eu fugiat nulla pariatur. Excepteur sint occaecat cupidatat non proident, sunt in culpa qui officia deserunt mollit anim id est laborum.&#xa;Sed ut perspiciatis unde omnis iste natus error sit voluptatem accusantium doloremque laudantium, totam rem aperiam, eaque ipsa quae ab illo inventore veritatis et quasi architecto beatae vitae dicta sunt explicabo. Nemo enim ipsam voluptatem quia voluptas sit aspernatur aut odit aut fugit, sed quia consequuntur magni dolores eos qui ratione voluptatem sequi nesciunt. Neque porro quisquam est, qui dolorem ipsum quia dolor sit amet, consectetur, adipisci velit, sed quia non numquam eius modi tempora incidunt ut labore et dolore magnam aliquam quaerat voluptatem. Ut enim ad minima veniam, quis nostrum exercitationem ullam corporis suscipit laboriosam, nisi ut aliquid ex ea commodi consequatur? Quis autem vel eum iure reprehenderit qui in ea voluptate velit esse quam nihil molestiae consequatur, vel illum qui dolorem eum fugiat quo voluptas nulla pariatur?" style="text;spacingTop=-5;whiteSpace=wrap;align=left" parent="1" vertex="1">
          <mxGeometry x="20" y="650" width="530" height="250" as="geometry" />
        </mxCell>
        <mxCell id="30" value="" style="verticalLabelPosition=bottom;verticalAlign=top;strokeWidth=1;shape=mxgraph.mockup.graphics.iconGrid;strokeColor=#CCCCCC;gridSize=1,1;" parent="1" vertex="1">
          <mxGeometry x="100" y="870" width="360" height="200" as="geometry" />
        </mxCell>
        <mxCell id="31" value="Article&#xa;Picture" style="text;spacingTop=-5;align=center;verticalAlign=middle;fontSize=36;fontColor=#CCCCCC" parent="1" vertex="1">
          <mxGeometry x="100" y="870" width="360" height="200" as="geometry" />
        </mxCell>
        <mxCell id="32" value="" style="verticalLabelPosition=bottom;verticalAlign=top;strokeWidth=1;shape=mxgraph.mockup.graphics.iconGrid;strokeColor=#CCCCCC;gridSize=1,1;" parent="1" vertex="1">
          <mxGeometry x="20" y="1120" width="570" height="480" as="geometry" />
        </mxCell>
        <mxCell id="33" value="Article 3" style="text;spacingTop=-5;" parent="1" vertex="1">
          <mxGeometry x="20" y="1120" width="30" height="20" as="geometry" />
        </mxCell>
        <mxCell id="34" value="Lorem ipsum dolor sit amet, consectetur adipisicing elit, sed do eiusmod tempor incididunt ut labore et dolore magna aliqua. Ut enim ad minim veniam, quis nostrud exercitation ullamco laboris nisi ut aliquip ex ea commodo consequat. Duis aute irure dolor in reprehenderit in voluptate velit esse cillum dolore eu fugiat nulla pariatur. Excepteur sint occaecat cupidatat non proident, sunt in culpa qui officia deserunt mollit anim id est laborum.&#xa;Sed ut perspiciatis unde omnis iste natus error sit voluptatem accusantium doloremque laudantium, totam rem aperiam, eaque ipsa quae ab illo inventore veritatis et quasi architecto beatae vitae dicta sunt explicabo. Nemo enim ipsam voluptatem quia voluptas sit aspernatur aut odit aut fugit, sed quia consequuntur magni dolores eos qui ratione voluptatem sequi nesciunt. Neque porro quisquam est, qui dolorem ipsum quia dolor sit amet, consectetur, adipisci velit, sed quia non numquam eius modi tempora incidunt ut labore et dolore magnam aliquam quaerat voluptatem. Ut enim ad minima veniam, quis nostrum exercitationem ullam corporis suscipit laboriosam, nisi ut aliquid ex ea commodi consequatur? Quis autem vel eum iure reprehenderit qui in ea voluptate velit esse quam nihil molestiae consequatur, vel illum qui dolorem eum fugiat quo voluptas nulla pariatur?" style="text;spacingTop=-5;whiteSpace=wrap;align=left" parent="1" vertex="1">
          <mxGeometry x="20" y="1150" width="530" height="250" as="geometry" />
        </mxCell>
        <mxCell id="35" value="" style="verticalLabelPosition=bottom;verticalAlign=top;strokeWidth=1;shape=mxgraph.mockup.graphics.iconGrid;strokeColor=#CCCCCC;gridSize=1,1;" parent="1" vertex="1">
          <mxGeometry x="100" y="1370" width="360" height="200" as="geometry" />
        </mxCell>
        <mxCell id="36" value="Article&#xa;Picture" style="text;spacingTop=-5;align=center;verticalAlign=middle;fontSize=36;fontColor=#CCCCCC" parent="1" vertex="1">
          <mxGeometry x="100" y="1370" width="360" height="200" as="geometry" />
        </mxCell>
        <mxCell id="37" value="" style="verticalLabelPosition=bottom;verticalAlign=top;strokeWidth=1;shape=mxgraph.mockup.misc.rating;strokeColor=#999999;fillColor=#ffff00;emptyFillColor=#ffffff;grade=4;ratingScale=5;ratingStyle=star;" parent="1" vertex="1">
          <mxGeometry x="510.00000000000006" y="585.0000000000002" width="77.5" height="10" as="geometry" />
        </mxCell>
        <mxCell id="38" value="Rate this article" style="text;spacingTop=-5;" parent="1" vertex="1">
          <mxGeometry x="410.0000000000001" y="580.0000000000001" width="30" height="20" as="geometry" />
        </mxCell>
        <mxCell id="41" value="" style="verticalLabelPosition=bottom;verticalAlign=top;strokeWidth=1;shape=mxgraph.mockup.misc.rating;strokeColor=#999999;fillColor=#ffff00;emptyFillColor=#ffffff;grade=4;ratingScale=5;ratingStyle=star;" parent="1" vertex="1">
          <mxGeometry x="509.99999999999994" y="1085" width="77.5" height="10" as="geometry" />
        </mxCell>
        <mxCell id="42" value="Rate this article" style="text;spacingTop=-5;" parent="1" vertex="1">
          <mxGeometry x="410.00000000000006" y="1080" width="30" height="20" as="geometry" />
        </mxCell>
        <mxCell id="43" value="" style="verticalLabelPosition=bottom;verticalAlign=top;strokeWidth=1;shape=mxgraph.mockup.misc.rating;strokeColor=#999999;fillColor=#ffff00;emptyFillColor=#ffffff;grade=4;ratingScale=5;ratingStyle=star;" parent="1" vertex="1">
          <mxGeometry x="510.0000000000001" y="1584.9999999999998" width="77.5" height="10" as="geometry" />
        </mxCell>
        <mxCell id="44" value="Rate this article" style="text;spacingTop=-5;" parent="1" vertex="1">
          <mxGeometry x="410.00000000000017" y="1579.9999999999998" width="30" height="20" as="geometry" />
        </mxCell>
        <mxCell id="47" value="Tags: Tag1 Tag2 Tag3 Tag4" style="text;spacingTop=-5;" parent="1" vertex="1">
          <mxGeometry x="20" y="580.0000000000002" width="210" height="20" as="geometry" />
        </mxCell>
        <mxCell id="48" value="Tags: Tag1 Tag2 Tag3 Tag4" style="text;spacingTop=-5;" parent="1" vertex="1">
          <mxGeometry x="20" y="1080" width="210" height="20" as="geometry" />
        </mxCell>
        <mxCell id="49" value="Tags: Tag1 Tag2 Tag3 Tag4" style="text;spacingTop=-5;" parent="1" vertex="1">
          <mxGeometry x="20" y="1579.9999999999998" width="210" height="20" as="geometry" />
        </mxCell>
        <mxCell id="50" value="" style="verticalLabelPosition=bottom;verticalAlign=top;strokeWidth=1;shape=mxgraph.mockup.graphics.iconGrid;strokeColor=#CCCCCC;gridSize=1,1;" parent="1" vertex="1">
          <mxGeometry x="600" y="590" width="200" height="150" as="geometry" />
        </mxCell>
        <mxCell id="51" value="Me on Twitter" style="text;spacingTop=-5;" parent="1" vertex="1">
          <mxGeometry x="610" y="570" width="30" height="20" as="geometry" />
        </mxCell>
        <mxCell id="52" value="Lorem ipsum dolor sit amet, consectetur adipisicing elit" style="text;spacingTop=-5;whiteSpace=wrap;align=left" parent="1" vertex="1">
          <mxGeometry x="610" y="600" width="190" height="40" as="geometry" />
        </mxCell>
        <mxCell id="54" value="Yesterday" style="text;spacingTop=-5;fontStyle=0;align=right" parent="1" vertex="1">
          <mxGeometry x="760" y="640" width="30" height="20" as="geometry" />
        </mxCell>
        <mxCell id="58" value="" style="verticalLabelPosition=bottom;verticalAlign=top;strokeWidth=1;shape=mxgraph.mockup.graphics.iconGrid;strokeColor=#CCCCCC;gridSize=1,1;" parent="1" vertex="1">
          <mxGeometry x="600" y="760" width="200" height="200" as="geometry" />
        </mxCell>
        <mxCell id="59" value="Tag Cloud" style="text;spacingTop=-5;align=center;verticalAlign=middle;fontSize=36;fontColor=#CCCCCC" parent="1" vertex="1">
          <mxGeometry x="600" y="760" width="200" height="200" as="geometry" />
        </mxCell>
        <mxCell id="60" value="Lorem ipsum dolor sit amet, consectetur adipisicing elit" style="text;spacingTop=-5;whiteSpace=wrap;align=left" parent="1" vertex="1">
          <mxGeometry x="610" y="670" width="190" height="40" as="geometry" />
        </mxCell>
        <mxCell id="61" value="1 Week ago" style="text;spacingTop=-5;fontStyle=0;align=right" parent="1" vertex="1">
          <mxGeometry x="760" y="710" width="30" height="20" as="geometry" />
        </mxCell>
      </root>
    </mxGraphModel>
  </diagram>
  <diagram id="sHMhRaZuMe2PTXNjNCH-" name="Login">
    <mxGraphModel dx="868" dy="450" grid="1" gridSize="10" guides="1" tooltips="1" connect="1" arrows="1" fold="1" page="1" pageScale="1" pageWidth="1100" pageHeight="850" math="0" shadow="0">
      <root>
        <mxCell id="W66Et58JhlUbqkik4U2i-0" />
        <mxCell id="W66Et58JhlUbqkik4U2i-1" parent="W66Et58JhlUbqkik4U2i-0" />
        <mxCell id="W66Et58JhlUbqkik4U2i-2" value="Login" style="strokeWidth=1;shadow=0;dashed=0;align=center;html=1;shape=mxgraph.mockup.containers.window;align=left;verticalAlign=top;spacingLeft=8;strokeColor2=#008cff;strokeColor3=#c4c4c4;fontColor=#666666;mainText=;fontSize=17;labelBackgroundColor=none;" parent="W66Et58JhlUbqkik4U2i-1" vertex="1">
          <mxGeometry x="270" y="200" width="550" height="440" as="geometry" />
        </mxCell>
        <mxCell id="W66Et58JhlUbqkik4U2i-3" value="" style="strokeWidth=1;shadow=0;dashed=0;align=center;html=1;shape=mxgraph.mockup.forms.rrect;rSize=0;strokeColor=#999999;fillColor=#ffffff;" parent="W66Et58JhlUbqkik4U2i-1" vertex="1">
          <mxGeometry x="450" y="275" width="200" height="300" as="geometry" />
        </mxCell>
        <mxCell id="W66Et58JhlUbqkik4U2i-4" value="Sign In" style="strokeWidth=1;shadow=0;dashed=0;align=center;html=1;shape=mxgraph.mockup.forms.anchor;fontSize=12;fontColor=#666666;align=left;resizeWidth=1;spacingLeft=0;" parent="W66Et58JhlUbqkik4U2i-3" vertex="1">
          <mxGeometry width="100" height="20" relative="1" as="geometry">
            <mxPoint x="10" y="10" as="offset" />
          </mxGeometry>
        </mxCell>
        <mxCell id="W66Et58JhlUbqkik4U2i-5" value="" style="shape=line;strokeColor=#ddeeff;strokeWidth=2;html=1;resizeWidth=1;" parent="W66Et58JhlUbqkik4U2i-3" vertex="1">
          <mxGeometry width="180" height="10" relative="1" as="geometry">
            <mxPoint x="10" y="30" as="offset" />
          </mxGeometry>
        </mxCell>
        <mxCell id="W66Et58JhlUbqkik4U2i-6" value="User Name:" style="strokeWidth=1;shadow=0;dashed=0;align=center;html=1;shape=mxgraph.mockup.forms.anchor;fontSize=12;fontColor=#666666;align=left;resizeWidth=1;spacingLeft=0;" parent="W66Et58JhlUbqkik4U2i-3" vertex="1">
          <mxGeometry width="100" height="20" relative="1" as="geometry">
            <mxPoint x="10" y="40" as="offset" />
          </mxGeometry>
        </mxCell>
        <mxCell id="W66Et58JhlUbqkik4U2i-7" value="johndoe" style="strokeWidth=1;shadow=0;dashed=0;align=center;html=1;shape=mxgraph.mockup.forms.rrect;rSize=0;strokeColor=#999999;fontColor=#666666;align=left;spacingLeft=5;resizeWidth=1;" parent="W66Et58JhlUbqkik4U2i-3" vertex="1">
          <mxGeometry width="150" height="25" relative="1" as="geometry">
            <mxPoint x="10" y="60" as="offset" />
          </mxGeometry>
        </mxCell>
        <mxCell id="W66Et58JhlUbqkik4U2i-8" value="Password:" style="strokeWidth=1;shadow=0;dashed=0;align=center;html=1;shape=mxgraph.mockup.forms.anchor;fontSize=12;fontColor=#666666;align=left;resizeWidth=1;spacingLeft=0;" parent="W66Et58JhlUbqkik4U2i-3" vertex="1">
          <mxGeometry width="100" height="20" relative="1" as="geometry">
            <mxPoint x="10" y="95" as="offset" />
          </mxGeometry>
        </mxCell>
        <mxCell id="W66Et58JhlUbqkik4U2i-9" value="********" style="strokeWidth=1;shadow=0;dashed=0;align=center;html=1;shape=mxgraph.mockup.forms.rrect;rSize=0;strokeColor=#999999;fontColor=#666666;align=left;spacingLeft=5;resizeWidth=1;" parent="W66Et58JhlUbqkik4U2i-3" vertex="1">
          <mxGeometry width="150" height="25" relative="1" as="geometry">
            <mxPoint x="10" y="115" as="offset" />
          </mxGeometry>
        </mxCell>
        <mxCell id="W66Et58JhlUbqkik4U2i-10" value="SIGN IN" style="strokeWidth=1;shadow=0;dashed=0;align=center;html=1;shape=mxgraph.mockup.forms.rrect;rSize=5;strokeColor=none;fontColor=#ffffff;fillColor=#66bbff;fontSize=16;fontStyle=1;" parent="W66Et58JhlUbqkik4U2i-3" vertex="1">
          <mxGeometry y="1" width="80" height="30" relative="1" as="geometry">
            <mxPoint x="20" y="-150" as="offset" />
          </mxGeometry>
        </mxCell>
        <mxCell id="W66Et58JhlUbqkik4U2i-11" value="Forgot Password?" style="strokeWidth=1;shadow=0;dashed=0;align=center;html=1;shape=mxgraph.mockup.forms.anchor;fontSize=12;fontColor=#9999ff;align=left;spacingLeft=0;fontStyle=4;resizeWidth=1;" parent="W66Et58JhlUbqkik4U2i-3" vertex="1">
          <mxGeometry y="1" width="150" height="20" relative="1" as="geometry">
            <mxPoint x="10" y="-110" as="offset" />
          </mxGeometry>
        </mxCell>
        <mxCell id="W66Et58JhlUbqkik4U2i-12" value="" style="shape=line;strokeColor=#ddeeff;strokeWidth=2;html=1;resizeWidth=1;" parent="W66Et58JhlUbqkik4U2i-3" vertex="1">
          <mxGeometry y="1" width="180" height="10" relative="1" as="geometry">
            <mxPoint x="10" y="-90" as="offset" />
          </mxGeometry>
        </mxCell>
        <mxCell id="W66Et58JhlUbqkik4U2i-13" value="New User" style="strokeWidth=1;shadow=0;dashed=0;align=center;html=1;shape=mxgraph.mockup.forms.anchor;fontSize=12;fontColor=#666666;align=left;spacingLeft=0;resizeWidth=1;" parent="W66Et58JhlUbqkik4U2i-3" vertex="1">
          <mxGeometry y="1" width="150" height="20" relative="1" as="geometry">
            <mxPoint x="10" y="-70" as="offset" />
          </mxGeometry>
        </mxCell>
        <mxCell id="W66Et58JhlUbqkik4U2i-14" value="SIGN UP" style="strokeWidth=1;shadow=0;dashed=0;align=center;html=1;shape=mxgraph.mockup.forms.rrect;rSize=5;strokeColor=none;fontColor=#ffffff;fillColor=#66bbff;fontSize=16;fontStyle=1;" parent="W66Et58JhlUbqkik4U2i-3" vertex="1">
          <mxGeometry y="1" width="80" height="30" relative="1" as="geometry">
            <mxPoint x="20" y="-50" as="offset" />
          </mxGeometry>
        </mxCell>
      </root>
    </mxGraphModel>
  </diagram>
  <diagram id="_82ysogssmFcVFRpUiRG" name="Menu">
    <mxGraphModel dx="868" dy="450" grid="1" gridSize="10" guides="1" tooltips="1" connect="1" arrows="1" fold="1" page="1" pageScale="1" pageWidth="850" pageHeight="1100" math="0" shadow="0">
      <root>
        <mxCell id="S-d7XXDx1svY5DcgzMVY-0" />
        <mxCell id="S-d7XXDx1svY5DcgzMVY-1" parent="S-d7XXDx1svY5DcgzMVY-0" />
        <mxCell id="eeBweOvzlbVDFYczEJ34-0" value="" style="verticalLabelPosition=bottom;shadow=0;dashed=0;align=center;html=1;verticalAlign=top;strokeWidth=1;shape=mxgraph.mockup.markup.line;strokeColor=#999999;" parent="S-d7XXDx1svY5DcgzMVY-1" vertex="1">
          <mxGeometry y="30" width="850" height="20" as="geometry" />
        </mxCell>
        <mxCell id="eeBweOvzlbVDFYczEJ34-1" value="" style="verticalLabelPosition=bottom;shadow=0;dashed=0;align=center;html=1;verticalAlign=top;strokeWidth=1;shape=mxgraph.mockup.markup.line;strokeColor=#999999;" parent="S-d7XXDx1svY5DcgzMVY-1" vertex="1">
          <mxGeometry y="70" width="850" height="20" as="geometry" />
        </mxCell>
        <mxCell id="eeBweOvzlbVDFYczEJ34-3" value="Movies" style="shape=rectangle;strokeColor=none;fillColor=none;linkText=;fontSize=17;fontColor=#0000ff;fontStyle=0;html=1;align=center;" parent="S-d7XXDx1svY5DcgzMVY-1" vertex="1">
          <mxGeometry x="50" y="44" width="90" height="30" as="geometry" />
        </mxCell>
        <mxCell id="eeBweOvzlbVDFYczEJ34-4" value="Login" style="shape=rectangle;strokeColor=none;fillColor=none;linkText=;fontSize=17;fontColor=#0000ff;fontStyle=0;html=1;align=center;" parent="S-d7XXDx1svY5DcgzMVY-1" vertex="1">
          <mxGeometry x="730" y="44" width="90" height="30" as="geometry" />
        </mxCell>
        <mxCell id="eeBweOvzlbVDFYczEJ34-5" value="Sign Up" style="shape=rectangle;strokeColor=none;fillColor=none;linkText=;fontSize=17;fontColor=#0000ff;fontStyle=0;html=1;align=center;" parent="S-d7XXDx1svY5DcgzMVY-1" vertex="1">
          <mxGeometry x="650" y="44" width="90" height="30" as="geometry" />
        </mxCell>
        <mxCell id="eeBweOvzlbVDFYczEJ34-6" value="Create&lt;br&gt;Movies" style="strokeWidth=1;shadow=0;dashed=0;align=center;html=1;shape=mxgraph.mockup.buttons.button;strokeColor=#666666;fontColor=#ffffff;mainText=;buttonStyle=round;fontSize=17;fontStyle=1;fillColor=#008cff;whiteSpace=wrap;" parent="S-d7XXDx1svY5DcgzMVY-1" vertex="1">
          <mxGeometry x="100" y="350" width="150" height="130" as="geometry" />
        </mxCell>
        <mxCell id="eeBweOvzlbVDFYczEJ34-7" value="Search &lt;br&gt;Movies" style="strokeWidth=1;shadow=0;dashed=0;align=center;html=1;shape=mxgraph.mockup.buttons.button;strokeColor=#666666;fontColor=#ffffff;mainText=;buttonStyle=round;fontSize=17;fontStyle=1;fillColor=#008cff;whiteSpace=wrap;" parent="S-d7XXDx1svY5DcgzMVY-1" vertex="1">
          <mxGeometry x="364" y="350" width="150" height="130" as="geometry" />
        </mxCell>
        <mxCell id="eeBweOvzlbVDFYczEJ34-8" value="Edit&lt;br&gt;User" style="strokeWidth=1;shadow=0;dashed=0;align=center;html=1;shape=mxgraph.mockup.buttons.button;strokeColor=#666666;fontColor=#ffffff;mainText=;buttonStyle=round;fontSize=17;fontStyle=1;fillColor=#008cff;whiteSpace=wrap;" parent="S-d7XXDx1svY5DcgzMVY-1" vertex="1">
          <mxGeometry x="600" y="350" width="150" height="130" as="geometry" />
        </mxCell>
        <mxCell id="eeBweOvzlbVDFYczEJ34-11" value="Movies" style="text;html=1;strokeColor=none;fillColor=none;align=center;verticalAlign=middle;whiteSpace=wrap;rounded=0;strokeWidth=3;fontSize=39;" parent="S-d7XXDx1svY5DcgzMVY-1" vertex="1">
          <mxGeometry x="355" y="190" width="140" height="60" as="geometry" />
        </mxCell>
      </root>
    </mxGraphModel>
  </diagram>
  <diagram id="3vChpRcUDaJVOzKZNSLh" name="Create Movie">
    <mxGraphModel dx="868" dy="450" grid="1" gridSize="10" guides="1" tooltips="1" connect="1" arrows="1" fold="1" page="1" pageScale="1" pageWidth="850" pageHeight="1100" math="0" shadow="0">
      <root>
        <mxCell id="7JHKykV7XnviLONLtlIL-0" />
        <mxCell id="7JHKykV7XnviLONLtlIL-1" parent="7JHKykV7XnviLONLtlIL-0" />
        <mxCell id="NYDI6tP_enoKtF7lThm7-0" value="" style="verticalLabelPosition=bottom;shadow=0;dashed=0;align=center;html=1;verticalAlign=top;strokeWidth=1;shape=mxgraph.mockup.markup.line;strokeColor=#999999;" parent="7JHKykV7XnviLONLtlIL-1" vertex="1">
          <mxGeometry y="30" width="850" height="20" as="geometry" />
        </mxCell>
        <mxCell id="NYDI6tP_enoKtF7lThm7-1" value="" style="verticalLabelPosition=bottom;shadow=0;dashed=0;align=center;html=1;verticalAlign=top;strokeWidth=1;shape=mxgraph.mockup.markup.line;strokeColor=#999999;" parent="7JHKykV7XnviLONLtlIL-1" vertex="1">
          <mxGeometry y="70" width="850" height="20" as="geometry" />
        </mxCell>
        <mxCell id="NYDI6tP_enoKtF7lThm7-2" value="Movies" style="shape=rectangle;strokeColor=none;fillColor=none;linkText=;fontSize=17;fontColor=#0000ff;fontStyle=0;html=1;align=center;" parent="7JHKykV7XnviLONLtlIL-1" vertex="1">
          <mxGeometry x="50" y="44" width="90" height="30" as="geometry" />
        </mxCell>
        <mxCell id="NYDI6tP_enoKtF7lThm7-3" value="Login" style="shape=rectangle;strokeColor=none;fillColor=none;linkText=;fontSize=17;fontColor=#0000ff;fontStyle=0;html=1;align=center;" parent="7JHKykV7XnviLONLtlIL-1" vertex="1">
          <mxGeometry x="730" y="44" width="90" height="30" as="geometry" />
        </mxCell>
        <mxCell id="NYDI6tP_enoKtF7lThm7-4" value="Sign Up" style="shape=rectangle;strokeColor=none;fillColor=none;linkText=;fontSize=17;fontColor=#0000ff;fontStyle=0;html=1;align=center;" parent="7JHKykV7XnviLONLtlIL-1" vertex="1">
          <mxGeometry x="650" y="44" width="90" height="30" as="geometry" />
        </mxCell>
        <mxCell id="gMW1lZnmilvYMl_XqyjM-0" value="" style="strokeWidth=1;shadow=0;dashed=0;align=center;html=1;shape=mxgraph.mockup.forms.rrect;rSize=0;strokeColor=#999999;fillColor=#ffffff;fontSize=39;" parent="7JHKykV7XnviLONLtlIL-1" vertex="1">
          <mxGeometry x="200" y="280" width="450" height="419.33" as="geometry" />
        </mxCell>
        <mxCell id="gMW1lZnmilvYMl_XqyjM-3" value="Name:" style="strokeWidth=1;shadow=0;dashed=0;align=center;html=1;shape=mxgraph.mockup.forms.anchor;fontSize=12;fontColor=#666666;align=left;resizeWidth=1;spacingLeft=0;" parent="gMW1lZnmilvYMl_XqyjM-0" vertex="1">
          <mxGeometry width="224.99999999999997" height="20" relative="1" as="geometry">
            <mxPoint x="120" y="90" as="offset" />
          </mxGeometry>
        </mxCell>
        <mxCell id="gMW1lZnmilvYMl_XqyjM-4" value="johndoe" style="strokeWidth=1;shadow=0;dashed=0;align=center;html=1;shape=mxgraph.mockup.forms.rrect;rSize=0;strokeColor=#999999;fontColor=#666666;align=left;spacingLeft=5;resizeWidth=1;" parent="gMW1lZnmilvYMl_XqyjM-0" vertex="1">
          <mxGeometry width="210" height="25" relative="1" as="geometry">
            <mxPoint x="120" y="110" as="offset" />
          </mxGeometry>
        </mxCell>
        <mxCell id="gMW1lZnmilvYMl_XqyjM-5" value="Language" style="strokeWidth=1;shadow=0;dashed=0;align=center;html=1;shape=mxgraph.mockup.forms.anchor;fontSize=12;fontColor=#666666;align=left;resizeWidth=1;spacingLeft=0;" parent="gMW1lZnmilvYMl_XqyjM-0" vertex="1">
          <mxGeometry width="225" height="20" relative="1" as="geometry">
            <mxPoint x="120" y="145" as="offset" />
          </mxGeometry>
        </mxCell>
        <mxCell id="gMW1lZnmilvYMl_XqyjM-6" value="" style="strokeWidth=1;shadow=0;dashed=0;align=center;html=1;shape=mxgraph.mockup.forms.rrect;rSize=0;strokeColor=#999999;fontColor=#666666;align=left;spacingLeft=5;resizeWidth=1;" parent="gMW1lZnmilvYMl_XqyjM-0" vertex="1">
          <mxGeometry width="210" height="25" relative="1" as="geometry">
            <mxPoint x="120" y="165" as="offset" />
          </mxGeometry>
        </mxCell>
        <mxCell id="gMW1lZnmilvYMl_XqyjM-12" value="Genres" style="strokeWidth=1;shadow=0;dashed=0;align=center;html=1;shape=mxgraph.mockup.forms.comboBox;strokeColor=#999999;fillColor=#ddeeff;align=left;fillColor2=#aaddff;mainText=;fontColor=#666666;fontSize=13;spacingLeft=3;" parent="gMW1lZnmilvYMl_XqyjM-0" vertex="1">
          <mxGeometry x="120" y="213.99716981132076" width="210" height="26.10922641509434" as="geometry" />
        </mxCell>
        <mxCell id="myAdjyppX7YnGYeNHEGY-0" value="Create" style="strokeWidth=1;shadow=0;dashed=0;align=center;html=1;shape=mxgraph.mockup.buttons.button;strokeColor=#666666;fontColor=#ffffff;mainText=;buttonStyle=round;fontSize=17;fontStyle=1;fillColor=#008cff;whiteSpace=wrap;" parent="gMW1lZnmilvYMl_XqyjM-0" vertex="1">
          <mxGeometry x="150" y="280" width="150" height="50" as="geometry" />
        </mxCell>
        <mxCell id="gMW1lZnmilvYMl_XqyjM-13" value="Create Movie" style="text;strokeColor=none;fillColor=none;html=1;fontSize=24;fontStyle=1;verticalAlign=middle;align=center;" parent="7JHKykV7XnviLONLtlIL-1" vertex="1">
          <mxGeometry x="360" y="170.00333333333333" width="100" height="70.66666666666666" as="geometry" />
        </mxCell>
      </root>
    </mxGraphModel>
  </diagram>
  <diagram id="aKUKRofLq9eX1Z4-mPyo" name="Movies">
    <mxGraphModel dx="1240" dy="643" grid="1" gridSize="10" guides="1" tooltips="1" connect="1" arrows="1" fold="1" page="1" pageScale="1" pageWidth="850" pageHeight="1100" math="0" shadow="0">
      <root>
        <mxCell id="fHjquZaWJowhZZfRHAc8-0" />
        <mxCell id="fHjquZaWJowhZZfRHAc8-1" parent="fHjquZaWJowhZZfRHAc8-0" />
        <mxCell id="mTz7YZ9NgGRVVf24_P7b-0" value="" style="verticalLabelPosition=bottom;shadow=0;dashed=0;align=center;html=1;verticalAlign=top;strokeWidth=1;shape=mxgraph.mockup.markup.line;strokeColor=#999999;" parent="fHjquZaWJowhZZfRHAc8-1" vertex="1">
          <mxGeometry y="30" width="850" height="20" as="geometry" />
        </mxCell>
        <mxCell id="mTz7YZ9NgGRVVf24_P7b-1" value="" style="verticalLabelPosition=bottom;shadow=0;dashed=0;align=center;html=1;verticalAlign=top;strokeWidth=1;shape=mxgraph.mockup.markup.line;strokeColor=#999999;" parent="fHjquZaWJowhZZfRHAc8-1" vertex="1">
          <mxGeometry y="70" width="850" height="20" as="geometry" />
        </mxCell>
        <mxCell id="mTz7YZ9NgGRVVf24_P7b-2" value="Movies" style="shape=rectangle;strokeColor=none;fillColor=none;linkText=;fontSize=17;fontColor=#0000ff;fontStyle=0;html=1;align=center;" parent="fHjquZaWJowhZZfRHAc8-1" vertex="1">
          <mxGeometry x="50" y="44" width="90" height="30" as="geometry" />
        </mxCell>
        <mxCell id="mTz7YZ9NgGRVVf24_P7b-3" value="Login" style="shape=rectangle;strokeColor=none;fillColor=none;linkText=;fontSize=17;fontColor=#0000ff;fontStyle=0;html=1;align=center;" parent="fHjquZaWJowhZZfRHAc8-1" vertex="1">
          <mxGeometry x="730" y="44" width="90" height="30" as="geometry" />
        </mxCell>
        <mxCell id="mTz7YZ9NgGRVVf24_P7b-4" value="Sign Up" style="shape=rectangle;strokeColor=none;fillColor=none;linkText=;fontSize=17;fontColor=#0000ff;fontStyle=0;html=1;align=center;" parent="fHjquZaWJowhZZfRHAc8-1" vertex="1">
          <mxGeometry x="650" y="44" width="90" height="30" as="geometry" />
        </mxCell>
        <mxCell id="NJbMLyPxoGj6rvsYbfbe-0" value="Movies" style="text;strokeColor=none;fillColor=none;html=1;fontSize=24;fontStyle=1;verticalAlign=middle;align=center;" parent="fHjquZaWJowhZZfRHAc8-1" vertex="1">
          <mxGeometry x="360" y="170.00333333333333" width="100" height="70.66666666666666" as="geometry" />
        </mxCell>
        <mxCell id="NJbMLyPxoGj6rvsYbfbe-6" value="" style="shape=table;html=1;whiteSpace=wrap;startSize=0;container=1;collapsible=0;childLayout=tableLayout;strokeWidth=1;fontSize=13;align=center;" parent="fHjquZaWJowhZZfRHAc8-1" vertex="1">
          <mxGeometry x="150" y="360" width="520" height="120" as="geometry" />
        </mxCell>
        <mxCell id="NJbMLyPxoGj6rvsYbfbe-11" value="" style="shape=partialRectangle;html=1;whiteSpace=wrap;collapsible=0;dropTarget=0;pointerEvents=0;fillColor=none;top=0;left=0;bottom=0;right=0;points=[[0,0.5],[1,0.5]];portConstraint=eastwest;" parent="NJbMLyPxoGj6rvsYbfbe-6" vertex="1">
          <mxGeometry width="520" height="40" as="geometry" />
        </mxCell>
        <mxCell id="NJbMLyPxoGj6rvsYbfbe-65" value="Movie" style="shape=partialRectangle;html=1;whiteSpace=wrap;connectable=0;fillColor=none;top=0;left=0;bottom=0;right=0;overflow=hidden;" parent="NJbMLyPxoGj6rvsYbfbe-11" vertex="1">
          <mxGeometry width="208" height="40" as="geometry" />
        </mxCell>
        <mxCell id="NJbMLyPxoGj6rvsYbfbe-12" value="Related Movies" style="shape=partialRectangle;html=1;whiteSpace=wrap;connectable=0;fillColor=none;top=0;left=0;bottom=0;right=0;overflow=hidden;" parent="NJbMLyPxoGj6rvsYbfbe-11" vertex="1">
          <mxGeometry x="208" width="312" height="40" as="geometry" />
        </mxCell>
        <mxCell id="NJbMLyPxoGj6rvsYbfbe-89" style="shape=partialRectangle;html=1;whiteSpace=wrap;collapsible=0;dropTarget=0;pointerEvents=0;fillColor=none;top=0;left=0;bottom=0;right=0;points=[[0,0.5],[1,0.5]];portConstraint=eastwest;" parent="NJbMLyPxoGj6rvsYbfbe-6" vertex="1">
          <mxGeometry y="40" width="520" height="40" as="geometry" />
        </mxCell>
        <mxCell id="NJbMLyPxoGj6rvsYbfbe-90" style="shape=partialRectangle;html=1;whiteSpace=wrap;connectable=0;fillColor=none;top=0;left=0;bottom=0;right=0;overflow=hidden;" parent="NJbMLyPxoGj6rvsYbfbe-89" vertex="1">
          <mxGeometry width="208" height="40" as="geometry" />
        </mxCell>
        <mxCell id="NJbMLyPxoGj6rvsYbfbe-91" style="shape=partialRectangle;html=1;whiteSpace=wrap;connectable=0;fillColor=none;top=0;left=0;bottom=0;right=0;overflow=hidden;" parent="NJbMLyPxoGj6rvsYbfbe-89" vertex="1">
          <mxGeometry x="208" width="312" height="40" as="geometry" />
        </mxCell>
        <mxCell id="NJbMLyPxoGj6rvsYbfbe-92" style="shape=partialRectangle;html=1;whiteSpace=wrap;collapsible=0;dropTarget=0;pointerEvents=0;fillColor=none;top=0;left=0;bottom=0;right=0;points=[[0,0.5],[1,0.5]];portConstraint=eastwest;" parent="NJbMLyPxoGj6rvsYbfbe-6" vertex="1">
          <mxGeometry y="80" width="520" height="40" as="geometry" />
        </mxCell>
        <mxCell id="NJbMLyPxoGj6rvsYbfbe-93" style="shape=partialRectangle;html=1;whiteSpace=wrap;connectable=0;fillColor=none;top=0;left=0;bottom=0;right=0;overflow=hidden;" parent="NJbMLyPxoGj6rvsYbfbe-92" vertex="1">
          <mxGeometry width="208" height="40" as="geometry" />
        </mxCell>
        <mxCell id="NJbMLyPxoGj6rvsYbfbe-94" style="shape=partialRectangle;html=1;whiteSpace=wrap;connectable=0;fillColor=none;top=0;left=0;bottom=0;right=0;overflow=hidden;" parent="NJbMLyPxoGj6rvsYbfbe-92" vertex="1">
          <mxGeometry x="208" width="312" height="40" as="geometry" />
        </mxCell>
        <mxCell id="NJbMLyPxoGj6rvsYbfbe-98" value="Under the Dome" style="shape=rectangle;strokeColor=none;fillColor=none;linkText=;fontSize=17;fontColor=#0000ff;fontStyle=4;html=1;align=center;" parent="fHjquZaWJowhZZfRHAc8-1" vertex="1">
          <mxGeometry x="150" y="405" width="150" height="30" as="geometry" />
        </mxCell>
        <mxCell id="NJbMLyPxoGj6rvsYbfbe-99" value="Person of Interest" style="shape=rectangle;strokeColor=none;fillColor=none;linkText=;fontSize=17;fontColor=#0000ff;fontStyle=4;html=1;align=center;" parent="fHjquZaWJowhZZfRHAc8-1" vertex="1">
          <mxGeometry x="360" y="405" width="150" height="30" as="geometry" />
        </mxCell>
        <mxCell id="NJbMLyPxoGj6rvsYbfbe-100" value="," style="shape=rectangle;strokeColor=none;fillColor=none;linkText=;fontSize=17;fontColor=#0000ff;fontStyle=4;html=1;align=center;" parent="fHjquZaWJowhZZfRHAc8-1" vertex="1">
          <mxGeometry x="500" y="405" width="10" height="30" as="geometry" />
        </mxCell>
        <mxCell id="NJbMLyPxoGj6rvsYbfbe-101" value="Bitten" style="shape=rectangle;strokeColor=none;fillColor=none;linkText=;fontSize=17;fontColor=#0000ff;fontStyle=4;html=1;align=center;" parent="fHjquZaWJowhZZfRHAc8-1" vertex="1">
          <mxGeometry x="510" y="405" width="50" height="30" as="geometry" />
        </mxCell>
        <mxCell id="FHa_3J9gzfQ6sa6sg1t8-0" value="Name:" style="strokeWidth=1;shadow=0;dashed=0;align=center;html=1;shape=mxgraph.mockup.forms.anchor;fontSize=12;fontColor=#666666;align=left;resizeWidth=1;spacingLeft=0;" vertex="1" parent="fHjquZaWJowhZZfRHAc8-1">
          <mxGeometry x="75" y="250" width="224.99999999999997" height="20" as="geometry" />
        </mxCell>
        <mxCell id="FHa_3J9gzfQ6sa6sg1t8-1" value="johndoe" style="strokeWidth=1;shadow=0;dashed=0;align=center;html=1;shape=mxgraph.mockup.forms.rrect;rSize=0;strokeColor=#999999;fontColor=#666666;align=left;spacingLeft=5;resizeWidth=1;" vertex="1" parent="fHjquZaWJowhZZfRHAc8-1">
          <mxGeometry x="75" y="270" width="210" height="25" as="geometry" />
        </mxCell>
        <mxCell id="FHa_3J9gzfQ6sa6sg1t8-2" value="Language" style="strokeWidth=1;shadow=0;dashed=0;align=center;html=1;shape=mxgraph.mockup.forms.anchor;fontSize=12;fontColor=#666666;align=left;resizeWidth=1;spacingLeft=0;" vertex="1" parent="fHjquZaWJowhZZfRHAc8-1">
          <mxGeometry x="315" y="250" width="225" height="20" as="geometry" />
        </mxCell>
        <mxCell id="FHa_3J9gzfQ6sa6sg1t8-3" value="" style="strokeWidth=1;shadow=0;dashed=0;align=center;html=1;shape=mxgraph.mockup.forms.rrect;rSize=0;strokeColor=#999999;fontColor=#666666;align=left;spacingLeft=5;resizeWidth=1;" vertex="1" parent="fHjquZaWJowhZZfRHAc8-1">
          <mxGeometry x="315" y="270" width="210" height="25" as="geometry" />
        </mxCell>
        <mxCell id="FHa_3J9gzfQ6sa6sg1t8-4" value="Genres" style="strokeWidth=1;shadow=0;dashed=0;align=center;html=1;shape=mxgraph.mockup.forms.comboBox;strokeColor=#999999;fillColor=#ddeeff;align=left;fillColor2=#aaddff;mainText=;fontColor=#666666;fontSize=13;spacingLeft=3;" vertex="1" parent="fHjquZaWJowhZZfRHAc8-1">
          <mxGeometry x="565" y="269.99716981132076" width="210" height="26.10922641509434" as="geometry" />
        </mxCell>
      </root>
    </mxGraphModel>
  </diagram>
  <diagram name="Movie Data" id="xL6NwoYOcLaDtomL0hTr">
    <mxGraphModel dx="1447" dy="750" grid="1" gridSize="10" guides="1" tooltips="1" connect="1" arrows="1" fold="1" page="1" pageScale="1" pageWidth="850" pageHeight="1100" math="0" shadow="0">
      <root>
        <mxCell id="f6hm7htOlrNtKoG3e2d1-0" />
        <mxCell id="f6hm7htOlrNtKoG3e2d1-1" parent="f6hm7htOlrNtKoG3e2d1-0" />
        <mxCell id="f6hm7htOlrNtKoG3e2d1-2" value="" style="verticalLabelPosition=bottom;shadow=0;dashed=0;align=center;html=1;verticalAlign=top;strokeWidth=1;shape=mxgraph.mockup.markup.line;strokeColor=#999999;" vertex="1" parent="f6hm7htOlrNtKoG3e2d1-1">
          <mxGeometry y="30" width="850" height="20" as="geometry" />
        </mxCell>
        <mxCell id="f6hm7htOlrNtKoG3e2d1-3" value="" style="verticalLabelPosition=bottom;shadow=0;dashed=0;align=center;html=1;verticalAlign=top;strokeWidth=1;shape=mxgraph.mockup.markup.line;strokeColor=#999999;" vertex="1" parent="f6hm7htOlrNtKoG3e2d1-1">
          <mxGeometry y="70" width="850" height="20" as="geometry" />
        </mxCell>
        <mxCell id="f6hm7htOlrNtKoG3e2d1-4" value="Movies" style="shape=rectangle;strokeColor=none;fillColor=none;linkText=;fontSize=17;fontColor=#0000ff;fontStyle=0;html=1;align=center;" vertex="1" parent="f6hm7htOlrNtKoG3e2d1-1">
          <mxGeometry x="50" y="44" width="90" height="30" as="geometry" />
        </mxCell>
        <mxCell id="f6hm7htOlrNtKoG3e2d1-5" value="Login" style="shape=rectangle;strokeColor=none;fillColor=none;linkText=;fontSize=17;fontColor=#0000ff;fontStyle=0;html=1;align=center;" vertex="1" parent="f6hm7htOlrNtKoG3e2d1-1">
          <mxGeometry x="730" y="44" width="90" height="30" as="geometry" />
        </mxCell>
        <mxCell id="f6hm7htOlrNtKoG3e2d1-6" value="Sign Up" style="shape=rectangle;strokeColor=none;fillColor=none;linkText=;fontSize=17;fontColor=#0000ff;fontStyle=0;html=1;align=center;" vertex="1" parent="f6hm7htOlrNtKoG3e2d1-1">
          <mxGeometry x="650" y="44" width="90" height="30" as="geometry" />
        </mxCell>
        <mxCell id="f6hm7htOlrNtKoG3e2d1-7" value="Under the Dome (1994)" style="text;strokeColor=none;fillColor=none;html=1;fontSize=44;fontStyle=1;verticalAlign=middle;align=center;" vertex="1" parent="f6hm7htOlrNtKoG3e2d1-1">
          <mxGeometry x="320" y="200.00333333333333" width="100" height="70.66666666666666" as="geometry" />
        </mxCell>
        <mxCell id="f6hm7htOlrNtKoG3e2d1-23" value="Drama, Thriller,&amp;nbsp;" style="text;html=1;strokeColor=none;fillColor=none;align=center;verticalAlign=middle;whiteSpace=wrap;rounded=0;fontSize=22;" vertex="1" parent="f6hm7htOlrNtKoG3e2d1-1">
          <mxGeometry x="130" y="280" width="170" height="20" as="geometry" />
        </mxCell>
        <mxCell id="f6hm7htOlrNtKoG3e2d1-24" value="" style="verticalLabelPosition=bottom;shadow=0;dashed=0;align=center;html=1;verticalAlign=top;strokeWidth=1;shape=mxgraph.mockup.graphics.simpleIcon;strokeColor=#999999;fontSize=17;" vertex="1" parent="f6hm7htOlrNtKoG3e2d1-1">
          <mxGeometry x="270" y="360" width="230" height="230" as="geometry" />
        </mxCell>
      </root>
    </mxGraphModel>
  </diagram>
  <diagram name="Users Management" id="NfAyyVp-LoEmCK2G8Upu">
    <mxGraphModel dx="868" dy="450" grid="1" gridSize="10" guides="1" tooltips="1" connect="1" arrows="1" fold="1" page="1" pageScale="1" pageWidth="850" pageHeight="1100" math="0" shadow="0">
      <root>
        <mxCell id="j79sV3L_LAnHGYG_oWLU-0" />
        <mxCell id="j79sV3L_LAnHGYG_oWLU-1" parent="j79sV3L_LAnHGYG_oWLU-0" />
        <mxCell id="j79sV3L_LAnHGYG_oWLU-11" value="" style="rounded=0;whiteSpace=wrap;html=1;fontSize=44;" parent="j79sV3L_LAnHGYG_oWLU-1" vertex="1">
          <mxGeometry x="100" y="370" width="690" height="170" as="geometry" />
        </mxCell>
        <mxCell id="j79sV3L_LAnHGYG_oWLU-2" value="" style="verticalLabelPosition=bottom;shadow=0;dashed=0;align=center;html=1;verticalAlign=top;strokeWidth=1;shape=mxgraph.mockup.markup.line;strokeColor=#999999;" parent="j79sV3L_LAnHGYG_oWLU-1" vertex="1">
          <mxGeometry y="30" width="850" height="20" as="geometry" />
        </mxCell>
        <mxCell id="j79sV3L_LAnHGYG_oWLU-3" value="" style="verticalLabelPosition=bottom;shadow=0;dashed=0;align=center;html=1;verticalAlign=top;strokeWidth=1;shape=mxgraph.mockup.markup.line;strokeColor=#999999;" parent="j79sV3L_LAnHGYG_oWLU-1" vertex="1">
          <mxGeometry y="70" width="850" height="20" as="geometry" />
        </mxCell>
        <mxCell id="j79sV3L_LAnHGYG_oWLU-4" value="Movies" style="shape=rectangle;strokeColor=none;fillColor=none;linkText=;fontSize=17;fontColor=#0000ff;fontStyle=0;html=1;align=center;" parent="j79sV3L_LAnHGYG_oWLU-1" vertex="1">
          <mxGeometry x="50" y="44" width="90" height="30" as="geometry" />
        </mxCell>
        <mxCell id="j79sV3L_LAnHGYG_oWLU-5" value="Login" style="shape=rectangle;strokeColor=none;fillColor=none;linkText=;fontSize=17;fontColor=#0000ff;fontStyle=0;html=1;align=center;" parent="j79sV3L_LAnHGYG_oWLU-1" vertex="1">
          <mxGeometry x="730" y="44" width="90" height="30" as="geometry" />
        </mxCell>
        <mxCell id="j79sV3L_LAnHGYG_oWLU-6" value="Sign Up" style="shape=rectangle;strokeColor=none;fillColor=none;linkText=;fontSize=17;fontColor=#0000ff;fontStyle=0;html=1;align=center;" parent="j79sV3L_LAnHGYG_oWLU-1" vertex="1">
          <mxGeometry x="650" y="44" width="90" height="30" as="geometry" />
        </mxCell>
        <mxCell id="j79sV3L_LAnHGYG_oWLU-7" value="Jone Doe" style="text;strokeColor=none;fillColor=none;html=1;fontSize=44;fontStyle=1;verticalAlign=middle;align=center;" parent="j79sV3L_LAnHGYG_oWLU-1" vertex="1">
          <mxGeometry x="200" y="419.6633333333333" width="100" height="70.66666666666666" as="geometry" />
        </mxCell>
        <mxCell id="j79sV3L_LAnHGYG_oWLU-8" value="Created: 12, June 2020" style="text;html=1;strokeColor=none;fillColor=none;align=left;verticalAlign=middle;whiteSpace=wrap;rounded=0;fontSize=22;" parent="j79sV3L_LAnHGYG_oWLU-1" vertex="1">
          <mxGeometry x="480" y="431" width="240" height="20" as="geometry" />
        </mxCell>
        <mxCell id="j79sV3L_LAnHGYG_oWLU-10" value="Transactions: 42" style="text;html=1;strokeColor=none;fillColor=none;align=left;verticalAlign=middle;whiteSpace=wrap;rounded=0;fontSize=22;" parent="j79sV3L_LAnHGYG_oWLU-1" vertex="1">
          <mxGeometry x="480" y="471" width="240" height="20" as="geometry" />
        </mxCell>
        <mxCell id="j79sV3L_LAnHGYG_oWLU-12" value="" style="rounded=0;whiteSpace=wrap;html=1;fontSize=44;" parent="j79sV3L_LAnHGYG_oWLU-1" vertex="1">
          <mxGeometry x="100" y="600" width="690" height="170" as="geometry" />
        </mxCell>
        <mxCell id="j79sV3L_LAnHGYG_oWLU-13" value="Jone Doe" style="text;strokeColor=none;fillColor=none;html=1;fontSize=44;fontStyle=1;verticalAlign=middle;align=center;" parent="j79sV3L_LAnHGYG_oWLU-1" vertex="1">
          <mxGeometry x="200" y="649.6633333333333" width="100" height="70.66666666666666" as="geometry" />
        </mxCell>
        <mxCell id="j79sV3L_LAnHGYG_oWLU-14" value="Created: 12, June 2020" style="text;html=1;strokeColor=none;fillColor=none;align=left;verticalAlign=middle;whiteSpace=wrap;rounded=0;fontSize=22;" parent="j79sV3L_LAnHGYG_oWLU-1" vertex="1">
          <mxGeometry x="480" y="661" width="240" height="20" as="geometry" />
        </mxCell>
        <mxCell id="j79sV3L_LAnHGYG_oWLU-15" value="Transactions: 42" style="text;html=1;strokeColor=none;fillColor=none;align=left;verticalAlign=middle;whiteSpace=wrap;rounded=0;fontSize=22;" parent="j79sV3L_LAnHGYG_oWLU-1" vertex="1">
          <mxGeometry x="480" y="701" width="240" height="20" as="geometry" />
        </mxCell>
        <mxCell id="j79sV3L_LAnHGYG_oWLU-16" value="" style="rounded=0;whiteSpace=wrap;html=1;fontSize=44;" parent="j79sV3L_LAnHGYG_oWLU-1" vertex="1">
          <mxGeometry x="100" y="820" width="690" height="170" as="geometry" />
        </mxCell>
        <mxCell id="j79sV3L_LAnHGYG_oWLU-17" value="Jone Doe" style="text;strokeColor=none;fillColor=none;html=1;fontSize=44;fontStyle=1;verticalAlign=middle;align=center;" parent="j79sV3L_LAnHGYG_oWLU-1" vertex="1">
          <mxGeometry x="200" y="869.6633333333333" width="100" height="70.66666666666666" as="geometry" />
        </mxCell>
        <mxCell id="j79sV3L_LAnHGYG_oWLU-18" value="Created: 12, June 2020" style="text;html=1;strokeColor=none;fillColor=none;align=left;verticalAlign=middle;whiteSpace=wrap;rounded=0;fontSize=22;" parent="j79sV3L_LAnHGYG_oWLU-1" vertex="1">
          <mxGeometry x="480" y="881" width="240" height="20" as="geometry" />
        </mxCell>
        <mxCell id="j79sV3L_LAnHGYG_oWLU-19" value="Transactions: 42" style="text;html=1;strokeColor=none;fillColor=none;align=left;verticalAlign=middle;whiteSpace=wrap;rounded=0;fontSize=22;" parent="j79sV3L_LAnHGYG_oWLU-1" vertex="1">
          <mxGeometry x="480" y="921" width="240" height="20" as="geometry" />
        </mxCell>
        <mxCell id="j79sV3L_LAnHGYG_oWLU-20" value="Create New" style="strokeWidth=1;shadow=0;dashed=0;align=center;html=1;shape=mxgraph.mockup.buttons.button;strokeColor=#666666;fontColor=#ffffff;mainText=;buttonStyle=round;fontSize=17;fontStyle=1;fillColor=#008cff;whiteSpace=wrap;" parent="j79sV3L_LAnHGYG_oWLU-1" vertex="1">
          <mxGeometry x="100" y="220" width="150" height="50" as="geometry" />
        </mxCell>
        <mxCell id="j79sV3L_LAnHGYG_oWLU-21" value="Users" style="text;strokeColor=none;fillColor=none;html=1;fontSize=44;fontStyle=1;verticalAlign=middle;align=center;" parent="j79sV3L_LAnHGYG_oWLU-1" vertex="1">
          <mxGeometry x="380" y="120.00333333333327" width="100" height="70.66666666666666" as="geometry" />
        </mxCell>
        <mxCell id="zVAFnMb2GO6M69-VCXg1-0" value="Edit" style="shape=rectangle;strokeColor=none;fillColor=none;linkText=;fontSize=17;fontColor=#0000ff;fontStyle=4;html=1;align=center;" parent="j79sV3L_LAnHGYG_oWLU-1" vertex="1">
          <mxGeometry x="160" y="500" width="150" height="30" as="geometry" />
        </mxCell>
      </root>
    </mxGraphModel>
  </diagram>
  <diagram name="User" id="koDjP54fy-6jMo6qsyTE">
    <mxGraphModel dx="868" dy="450" grid="0" gridSize="10" guides="1" tooltips="1" connect="1" arrows="1" fold="1" page="1" pageScale="1" pageWidth="850" pageHeight="1100" math="0" shadow="1">
      <root>
        <mxCell id="AgMd1FkvgO4_T3rqmTvc-0" />
        <mxCell id="AgMd1FkvgO4_T3rqmTvc-1" parent="AgMd1FkvgO4_T3rqmTvc-0" />
        <mxCell id="AgMd1FkvgO4_T3rqmTvc-3" value="" style="verticalLabelPosition=bottom;shadow=0;dashed=0;align=center;html=1;verticalAlign=top;strokeWidth=1;shape=mxgraph.mockup.markup.line;strokeColor=#999999;" parent="AgMd1FkvgO4_T3rqmTvc-1" vertex="1">
          <mxGeometry y="30" width="850" height="20" as="geometry" />
        </mxCell>
        <mxCell id="AgMd1FkvgO4_T3rqmTvc-4" value="" style="verticalLabelPosition=bottom;shadow=0;dashed=0;align=center;html=1;verticalAlign=top;strokeWidth=1;shape=mxgraph.mockup.markup.line;strokeColor=#999999;" parent="AgMd1FkvgO4_T3rqmTvc-1" vertex="1">
          <mxGeometry y="70" width="850" height="20" as="geometry" />
        </mxCell>
        <mxCell id="AgMd1FkvgO4_T3rqmTvc-5" value="Movies" style="shape=rectangle;strokeColor=none;fillColor=none;linkText=;fontSize=17;fontColor=#0000ff;fontStyle=0;html=1;align=center;" parent="AgMd1FkvgO4_T3rqmTvc-1" vertex="1">
          <mxGeometry x="50" y="44" width="90" height="30" as="geometry" />
        </mxCell>
        <mxCell id="AgMd1FkvgO4_T3rqmTvc-6" value="Login" style="shape=rectangle;strokeColor=none;fillColor=none;linkText=;fontSize=17;fontColor=#0000ff;fontStyle=0;html=1;align=center;" parent="AgMd1FkvgO4_T3rqmTvc-1" vertex="1">
          <mxGeometry x="730" y="44" width="90" height="30" as="geometry" />
        </mxCell>
        <mxCell id="AgMd1FkvgO4_T3rqmTvc-7" value="Sign Up" style="shape=rectangle;strokeColor=none;fillColor=none;linkText=;fontSize=17;fontColor=#0000ff;fontStyle=0;html=1;align=center;" parent="AgMd1FkvgO4_T3rqmTvc-1" vertex="1">
          <mxGeometry x="650" y="44" width="90" height="30" as="geometry" />
        </mxCell>
        <mxCell id="AgMd1FkvgO4_T3rqmTvc-20" value="User Data" style="text;strokeColor=none;fillColor=none;html=1;fontSize=44;fontStyle=1;verticalAlign=middle;align=center;" parent="AgMd1FkvgO4_T3rqmTvc-1" vertex="1">
          <mxGeometry x="380" y="120.00333333333327" width="100" height="70.66666666666666" as="geometry" />
        </mxCell>
        <mxCell id="jT0g0Aqz2853Jhz5qGdv-0" value="" style="strokeWidth=1;shadow=0;dashed=0;align=center;html=1;shape=mxgraph.mockup.forms.rrect;rSize=0;strokeColor=#999999;fillColor=#ffffff;fontSize=44;" parent="AgMd1FkvgO4_T3rqmTvc-1" vertex="1">
          <mxGeometry x="330" y="240" width="200" height="300" as="geometry" />
        </mxCell>
        <mxCell id="jT0g0Aqz2853Jhz5qGdv-2" value="" style="shape=line;strokeColor=#ddeeff;strokeWidth=2;html=1;resizeWidth=1;" parent="jT0g0Aqz2853Jhz5qGdv-0" vertex="1">
          <mxGeometry width="180" height="10" relative="1" as="geometry">
            <mxPoint x="10" y="30" as="offset" />
          </mxGeometry>
        </mxCell>
        <mxCell id="jT0g0Aqz2853Jhz5qGdv-3" value="User Name:" style="strokeWidth=1;shadow=0;dashed=0;align=center;html=1;shape=mxgraph.mockup.forms.anchor;fontSize=12;fontColor=#666666;align=left;resizeWidth=1;spacingLeft=0;" parent="jT0g0Aqz2853Jhz5qGdv-0" vertex="1">
          <mxGeometry width="100" height="20" relative="1" as="geometry">
            <mxPoint x="10" y="40" as="offset" />
          </mxGeometry>
        </mxCell>
        <mxCell id="jT0g0Aqz2853Jhz5qGdv-4" value="johndoe" style="strokeWidth=1;shadow=0;dashed=0;align=center;html=1;shape=mxgraph.mockup.forms.rrect;rSize=0;strokeColor=#999999;fontColor=#666666;align=left;spacingLeft=5;resizeWidth=1;" parent="jT0g0Aqz2853Jhz5qGdv-0" vertex="1">
          <mxGeometry width="150" height="25" relative="1" as="geometry">
            <mxPoint x="10" y="60" as="offset" />
          </mxGeometry>
        </mxCell>
        <mxCell id="jT0g0Aqz2853Jhz5qGdv-5" value="Password:" style="strokeWidth=1;shadow=0;dashed=0;align=center;html=1;shape=mxgraph.mockup.forms.anchor;fontSize=12;fontColor=#666666;align=left;resizeWidth=1;spacingLeft=0;" parent="jT0g0Aqz2853Jhz5qGdv-0" vertex="1">
          <mxGeometry width="100" height="20" relative="1" as="geometry">
            <mxPoint x="10" y="95" as="offset" />
          </mxGeometry>
        </mxCell>
        <mxCell id="jT0g0Aqz2853Jhz5qGdv-6" value="" style="strokeWidth=1;shadow=0;dashed=0;align=center;html=1;shape=mxgraph.mockup.forms.rrect;rSize=0;strokeColor=#999999;fontColor=#666666;align=left;spacingLeft=5;resizeWidth=1;" parent="jT0g0Aqz2853Jhz5qGdv-0" vertex="1">
          <mxGeometry width="150" height="25" relative="1" as="geometry">
            <mxPoint x="10" y="115" as="offset" />
          </mxGeometry>
        </mxCell>
        <mxCell id="jT0g0Aqz2853Jhz5qGdv-7" value="Create" style="strokeWidth=1;shadow=0;dashed=0;align=center;html=1;shape=mxgraph.mockup.forms.rrect;rSize=5;strokeColor=none;fontColor=#ffffff;fillColor=#66bbff;fontSize=16;fontStyle=1;" parent="jT0g0Aqz2853Jhz5qGdv-0" vertex="1">
          <mxGeometry y="1" width="80" height="30" relative="1" as="geometry">
            <mxPoint x="9" y="-70" as="offset" />
          </mxGeometry>
        </mxCell>
        <mxCell id="XnGv4GX8RAmmJTYn5I5k-0" value="Transactions" style="strokeWidth=1;shadow=0;dashed=0;align=center;html=1;shape=mxgraph.mockup.forms.anchor;fontSize=12;fontColor=#666666;align=left;resizeWidth=1;spacingLeft=0;" parent="jT0g0Aqz2853Jhz5qGdv-0" vertex="1">
          <mxGeometry width="100" height="20" relative="1" as="geometry">
            <mxPoint x="10" y="147" as="offset" />
          </mxGeometry>
        </mxCell>
        <mxCell id="XnGv4GX8RAmmJTYn5I5k-1" value="" style="strokeWidth=1;shadow=0;dashed=0;align=center;html=1;shape=mxgraph.mockup.forms.rrect;rSize=0;strokeColor=#999999;fontColor=#666666;align=left;spacingLeft=5;resizeWidth=1;" parent="jT0g0Aqz2853Jhz5qGdv-0" vertex="1">
          <mxGeometry width="150" height="25" relative="1" as="geometry">
            <mxPoint x="10" y="167" as="offset" />
          </mxGeometry>
        </mxCell>
      </root>
    </mxGraphModel>
  </diagram>
  <diagram name="404" id="fGUuXAUtMqa5qxHREiCe">
    <mxGraphModel dx="1447" dy="750" grid="0" gridSize="10" guides="1" tooltips="1" connect="1" arrows="1" fold="1" page="1" pageScale="1" pageWidth="850" pageHeight="1100" math="0" shadow="1">
      <root>
        <mxCell id="KrNnngea-VjjJN8E8ob2-0" />
        <mxCell id="KrNnngea-VjjJN8E8ob2-1" parent="KrNnngea-VjjJN8E8ob2-0" />
        <mxCell id="KrNnngea-VjjJN8E8ob2-7" value="Not Found" style="text;strokeColor=none;fillColor=none;html=1;fontSize=52;fontStyle=1;verticalAlign=middle;align=center;" vertex="1" parent="KrNnngea-VjjJN8E8ob2-1">
          <mxGeometry x="342" y="410.0033333333333" width="100" height="70.66666666666666" as="geometry" />
        </mxCell>
      </root>
    </mxGraphModel>
  </diagram>
</mxfile>
